# xmcd
#
# Track frame offsets: 
#        150
#        12381
#        28419
#        40944
#        57504
#        72819
#        86939
#        102718
#        122719
#        138340
#        153140
#        169512
#        183328
#        198270
#        215454
#        229147
#        245924
#
# Disc length: 3473 seconds
#
# Revision: 3
# Processed by: cddbd v1.5.2PL0 Copyright (c) Steve Scherf et al.
# Submitted via: ExactAudioCopy v1.0b1
#
DISCID=f70d8f11
DTITLE=Reba McEntire - Reba - 50 Greatest Hits [CD 1)
DYEAR=2008
DGENRE=Country
TTITLE0=How Blue
TTITLE1=Someone Should Leave
TTITLE2=Have I Got A Deal For You
TTITLE3=Only In My Mind
TTITLE4=Whoever's In New England
TTITLE5=Little Rock
TTITLE6=What Am I Gonna Do About You
TTITLE7=Let The Music Lift You Up
TTITLE8=One Promise Too Late
TTITLE9=The Last One To Know
TTITLE10=Love Will Find Its Way To You
TTITLE11=Sunday Kind Of Love
TTITLE12=I Know How He Feels
TTITLE13=New Fool At An Old Game
TTITLE14=Cathy's Clown
TTITLE15='Til Love Comes Around
TTITLE16=Walk On
EXTD=Reba 50 Greatest Hits YEAR: 2008
EXTT0=
EXTT1=
EXTT2=
EXTT3=
EXTT4=
EXTT5=
EXTT6=
EXTT7=
EXTT8=
EXTT9=
EXTT10=
EXTT11=
EXTT12=
EXTT13=
EXTT14=
EXTT15=
EXTT16=
PLAYORDER=
